<svg width="479" height="210" viewBox="0 0 479 210" fill="none" xmlns="http://www.w3.org/2000/svg">
<path d="M111.845 13.204C111.485 13.78 111.101 14.212 110.693 14.5C110.309 14.788 109.805 14.932 109.181 14.932C108.629 14.932 108.029 14.764 107.381 14.428C106.757 14.068 106.037 13.672 105.221 13.24C104.429 12.808 103.517 12.424 102.485 12.088C101.453 11.728 100.277 11.548 98.9565 11.548C96.6765 11.548 94.9725 12.04 93.8445 13.024C92.7405 13.984 92.1885 15.292 92.1885 16.948C92.1885 18.004 92.5245 18.88 93.1965 19.576C93.8685 20.272 94.7445 20.872 95.8245 21.376C96.9285 21.88 98.1765 22.348 99.5685 22.78C100.985 23.188 102.425 23.656 103.889 24.184C105.353 24.688 106.781 25.288 108.173 25.984C109.589 26.68 110.837 27.568 111.917 28.648C113.021 29.728 113.909 31.048 114.581 32.608C115.253 34.144 115.589 36.004 115.589 38.188C115.589 40.612 115.169 42.88 114.329 44.992C113.489 47.104 112.265 48.952 110.657 50.536C109.073 52.096 107.105 53.332 104.753 54.244C102.425 55.132 99.7725 55.576 96.7965 55.576C95.1645 55.576 93.4965 55.408 91.7925 55.072C90.1125 54.736 88.4805 54.268 86.8965 53.668C85.3125 53.044 83.8245 52.312 82.4325 51.472C81.0405 50.632 79.8285 49.696 78.7965 48.664L82.3965 42.976C82.6845 42.568 83.0565 42.232 83.5125 41.968C83.9925 41.68 84.5085 41.536 85.0605 41.536C85.7805 41.536 86.5005 41.764 87.2205 42.22C87.9645 42.676 88.7925 43.18 89.7045 43.732C90.6405 44.284 91.7085 44.788 92.9085 45.244C94.1085 45.7 95.5245 45.928 97.1565 45.928C99.3645 45.928 101.081 45.448 102.305 44.488C103.529 43.504 104.141 41.956 104.141 39.844C104.141 38.62 103.805 37.624 103.133 36.856C102.461 36.088 101.573 35.452 100.469 34.948C99.3885 34.444 98.1525 34 96.7605 33.616C95.3685 33.232 93.9405 32.812 92.4765 32.356C91.0125 31.876 89.5845 31.3 88.1925 30.628C86.8005 29.932 85.5525 29.032 84.4485 27.928C83.3685 26.8 82.4925 25.408 81.8205 23.752C81.1485 22.072 80.8125 20.008 80.8125 17.56C80.8125 15.592 81.2085 13.672 82.0005 11.8C82.7925 9.928 83.9565 8.26 85.4925 6.796C87.0285 5.332 88.9125 4.168 91.1445 3.304C93.3765 2.416 95.9325 1.972 98.8125 1.972C100.421 1.972 101.981 2.104 103.493 2.368C105.029 2.608 106.481 2.98 107.849 3.484C109.217 3.964 110.489 4.552 111.665 5.248C112.865 5.92 113.933 6.688 114.869 7.552L111.845 13.204ZM144.656 31.852C144.656 30.964 144.536 30.1 144.296 29.26C144.08 28.42 143.708 27.676 143.18 27.028C142.676 26.356 142.004 25.816 141.164 25.408C140.324 25 139.304 24.796 138.104 24.796C135.992 24.796 134.336 25.408 133.136 26.632C131.936 27.832 131.144 29.572 130.76 31.852H144.656ZM130.616 38.332C130.976 41.452 131.924 43.72 133.46 45.136C134.996 46.528 136.976 47.224 139.4 47.224C140.696 47.224 141.812 47.068 142.748 46.756C143.684 46.444 144.512 46.096 145.232 45.712C145.976 45.328 146.648 44.98 147.248 44.668C147.872 44.356 148.52 44.2 149.192 44.2C150.08 44.2 150.752 44.524 151.208 45.172L154.448 49.168C153.296 50.488 152.048 51.568 150.704 52.408C149.384 53.224 148.016 53.872 146.6 54.352C145.208 54.808 143.804 55.12 142.388 55.288C140.996 55.48 139.664 55.576 138.392 55.576C135.776 55.576 133.316 55.156 131.012 54.316C128.732 53.452 126.728 52.18 125 50.5C123.296 48.82 121.94 46.732 120.932 44.236C119.948 41.74 119.456 38.836 119.456 35.524C119.456 33.028 119.876 30.664 120.716 28.432C121.58 26.2 122.804 24.244 124.388 22.564C125.996 20.884 127.928 19.552 130.184 18.568C132.464 17.584 135.032 17.092 137.888 17.092C140.36 17.092 142.616 17.476 144.656 18.244C146.72 19.012 148.484 20.128 149.948 21.592C151.436 23.056 152.588 24.856 153.404 26.992C154.244 29.104 154.664 31.504 154.664 34.192C154.664 35.032 154.628 35.716 154.556 36.244C154.484 36.772 154.352 37.192 154.16 37.504C153.968 37.816 153.704 38.032 153.368 38.152C153.056 38.272 152.648 38.332 152.144 38.332H130.616ZM170.688 23.428C171.84 21.412 173.16 19.828 174.648 18.676C176.16 17.524 177.888 16.948 179.832 16.948C181.512 16.948 182.88 17.344 183.936 18.136L183.216 26.344C183.096 26.872 182.892 27.232 182.604 27.424C182.34 27.616 181.968 27.712 181.488 27.712C181.296 27.712 181.044 27.7 180.732 27.676C180.42 27.652 180.096 27.628 179.76 27.604C179.424 27.556 179.076 27.52 178.716 27.496C178.38 27.448 178.068 27.424 177.78 27.424C176.148 27.424 174.84 27.856 173.856 28.72C172.896 29.584 172.08 30.784 171.408 32.32V55H160.248V17.668H166.872C167.424 17.668 167.88 17.716 168.24 17.812C168.624 17.908 168.936 18.064 169.176 18.28C169.44 18.472 169.632 18.736 169.752 19.072C169.896 19.408 170.016 19.816 170.112 20.296L170.688 23.428ZM201.96 34.372C203.808 34.372 205.14 33.916 205.956 33.004C206.796 32.068 207.216 30.868 207.216 29.404C207.216 27.892 206.796 26.704 205.956 25.84C205.14 24.976 203.808 24.544 201.96 24.544C200.112 24.544 198.768 24.976 197.928 25.84C197.112 26.704 196.704 27.892 196.704 29.404C196.704 30.124 196.8 30.784 196.992 31.384C197.208 31.984 197.532 32.512 197.964 32.968C198.396 33.4 198.936 33.748 199.584 34.012C200.256 34.252 201.048 34.372 201.96 34.372ZM210.6 56.368C210.6 55.48 210.204 54.844 209.412 54.46C208.62 54.052 207.588 53.764 206.316 53.596C205.044 53.428 203.616 53.332 202.032 53.308C200.472 53.26 198.912 53.164 197.352 53.02C196.656 53.5 196.08 54.04 195.624 54.64C195.192 55.216 194.976 55.876 194.976 56.62C194.976 57.148 195.084 57.628 195.3 58.06C195.54 58.492 195.948 58.864 196.524 59.176C197.1 59.488 197.868 59.728 198.828 59.896C199.812 60.088 201.048 60.184 202.536 60.184C204.144 60.184 205.464 60.088 206.496 59.896C207.528 59.704 208.344 59.44 208.944 59.104C209.568 58.768 210 58.36 210.24 57.88C210.48 57.424 210.6 56.92 210.6 56.368ZM221.616 18.82V22.888C221.616 23.512 221.436 24.004 221.076 24.364C220.74 24.724 220.152 25 219.312 25.192L216.612 25.804C216.756 26.332 216.864 26.872 216.936 27.424C217.032 27.976 217.08 28.552 217.08 29.152C217.08 31.024 216.684 32.704 215.892 34.192C215.124 35.68 214.056 36.952 212.688 38.008C211.344 39.04 209.748 39.844 207.9 40.42C206.052 40.972 204.072 41.248 201.96 41.248C201.384 41.248 200.82 41.236 200.268 41.212C199.716 41.164 199.176 41.092 198.648 40.996C197.832 41.5 197.424 42.064 197.424 42.688C197.424 43.312 197.76 43.768 198.432 44.056C199.104 44.32 199.992 44.512 201.096 44.632C202.2 44.728 203.448 44.8 204.84 44.848C206.256 44.872 207.696 44.956 209.16 45.1C210.624 45.22 212.052 45.436 213.444 45.748C214.86 46.06 216.12 46.564 217.224 47.26C218.328 47.956 219.216 48.892 219.888 50.068C220.56 51.22 220.896 52.696 220.896 54.496C220.896 56.176 220.488 57.82 219.672 59.428C218.856 61.036 217.656 62.464 216.072 63.712C214.488 64.96 212.544 65.956 210.24 66.7C207.936 67.468 205.296 67.852 202.32 67.852C199.392 67.852 196.86 67.576 194.724 67.024C192.612 66.472 190.848 65.74 189.432 64.828C188.04 63.94 187.008 62.908 186.336 61.732C185.664 60.556 185.328 59.332 185.328 58.06C185.328 56.404 185.808 55.024 186.768 53.92C187.728 52.816 189.072 51.928 190.8 51.256C189.888 50.704 189.168 49.996 188.64 49.132C188.112 48.268 187.848 47.152 187.848 45.784C187.848 45.232 187.944 44.656 188.136 44.056C188.328 43.432 188.628 42.832 189.036 42.256C189.468 41.656 189.996 41.092 190.62 40.564C191.244 40.036 191.988 39.568 192.852 39.16C190.908 38.128 189.372 36.772 188.244 35.092C187.116 33.388 186.552 31.408 186.552 29.152C186.552 27.28 186.948 25.6 187.74 24.112C188.532 22.6 189.612 21.328 190.98 20.296C192.372 19.24 194.004 18.436 195.876 17.884C197.748 17.308 199.776 17.02 201.96 17.02C205.128 17.02 207.936 17.62 210.384 18.82H221.616ZM237.684 17.668V55H226.524V17.668H237.684ZM238.836 7.444C238.836 8.332 238.656 9.172 238.296 9.964C237.936 10.732 237.444 11.416 236.82 12.016C236.196 12.592 235.464 13.06 234.624 13.42C233.808 13.756 232.932 13.924 231.996 13.924C231.084 13.924 230.232 13.756 229.44 13.42C228.648 13.06 227.94 12.592 227.316 12.016C226.716 11.416 226.236 10.732 225.876 9.964C225.54 9.172 225.372 8.332 225.372 7.444C225.372 6.532 225.54 5.68 225.876 4.888C226.236 4.096 226.716 3.4 227.316 2.8C227.94 2.2 228.648 1.732 229.44 1.396C230.232 1.06 231.084 0.891999 231.996 0.891999C232.932 0.891999 233.808 1.06 234.624 1.396C235.464 1.732 236.196 2.2 236.82 2.8C237.444 3.4 237.936 4.096 238.296 4.888C238.656 5.68 238.836 6.532 238.836 7.444ZM322.395 2.548V55H311.667V24.832C311.667 24.136 311.679 23.38 311.703 22.564C311.751 21.748 311.823 20.92 311.919 20.08L297.987 47.044C297.555 47.884 296.967 48.52 296.223 48.952C295.503 49.384 294.675 49.6 293.739 49.6H292.083C291.147 49.6 290.307 49.384 289.563 48.952C288.843 48.52 288.267 47.884 287.835 47.044L273.903 20.008C273.975 20.872 274.035 21.724 274.083 22.564C274.131 23.38 274.155 24.136 274.155 24.832V55H263.427V2.548H272.715C273.243 2.548 273.699 2.56 274.083 2.584C274.491 2.608 274.851 2.68 275.163 2.8C275.475 2.92 275.751 3.112 275.991 3.376C276.255 3.616 276.507 3.964 276.747 4.42L290.247 31.024C290.727 31.936 291.183 32.884 291.615 33.868C292.071 34.852 292.503 35.86 292.911 36.892C293.319 35.836 293.739 34.804 294.171 33.796C294.627 32.788 295.107 31.828 295.611 30.916L309.075 4.42C309.315 3.964 309.555 3.616 309.795 3.376C310.059 3.112 310.347 2.92 310.659 2.8C310.971 2.68 311.319 2.608 311.703 2.584C312.111 2.56 312.579 2.548 313.107 2.548H322.395ZM349.735 39.808C347.503 39.904 345.667 40.096 344.227 40.384C342.787 40.672 341.647 41.032 340.807 41.464C339.967 41.896 339.379 42.388 339.043 42.94C338.731 43.492 338.575 44.092 338.575 44.74C338.575 46.012 338.923 46.912 339.619 47.44C340.315 47.944 341.335 48.196 342.679 48.196C344.119 48.196 345.379 47.944 346.459 47.44C347.539 46.936 348.631 46.12 349.735 44.992V39.808ZM329.647 22.852C331.903 20.86 334.399 19.384 337.135 18.424C339.895 17.44 342.847 16.948 345.991 16.948C348.247 16.948 350.275 17.32 352.075 18.064C353.899 18.784 355.435 19.804 356.683 21.124C357.955 22.42 358.927 23.968 359.599 25.768C360.271 27.568 360.607 29.536 360.607 31.672V55H355.495C354.439 55 353.635 54.856 353.083 54.568C352.555 54.28 352.111 53.68 351.751 52.768L350.959 50.716C350.023 51.508 349.123 52.204 348.259 52.804C347.395 53.404 346.495 53.92 345.559 54.352C344.647 54.76 343.663 55.06 342.607 55.252C341.575 55.468 340.423 55.576 339.151 55.576C337.447 55.576 335.899 55.36 334.507 54.928C333.115 54.472 331.927 53.812 330.943 52.948C329.983 52.084 329.239 51.016 328.711 49.744C328.183 48.448 327.919 46.96 327.919 45.28C327.919 43.936 328.255 42.58 328.927 41.212C329.599 39.82 330.763 38.56 332.419 37.432C334.075 36.28 336.307 35.32 339.115 34.552C341.923 33.784 345.463 33.352 349.735 33.256V31.672C349.735 29.488 349.279 27.916 348.367 26.956C347.479 25.972 346.207 25.48 344.551 25.48C343.231 25.48 342.151 25.624 341.311 25.912C340.471 26.2 339.715 26.524 339.043 26.884C338.395 27.244 337.759 27.568 337.135 27.856C336.511 28.144 335.767 28.288 334.903 28.288C334.135 28.288 333.487 28.096 332.959 27.712C332.431 27.328 331.999 26.872 331.663 26.344L329.647 22.852ZM378.18 23.428C379.332 21.412 380.652 19.828 382.14 18.676C383.652 17.524 385.38 16.948 387.324 16.948C389.004 16.948 390.372 17.344 391.428 18.136L390.708 26.344C390.588 26.872 390.384 27.232 390.096 27.424C389.832 27.616 389.46 27.712 388.98 27.712C388.788 27.712 388.536 27.7 388.224 27.676C387.912 27.652 387.588 27.628 387.252 27.604C386.916 27.556 386.568 27.52 386.208 27.496C385.872 27.448 385.56 27.424 385.272 27.424C383.64 27.424 382.332 27.856 381.348 28.72C380.388 29.584 379.572 30.784 378.9 32.32V55H367.74V17.668H374.364C374.916 17.668 375.372 17.716 375.732 17.812C376.116 17.908 376.428 18.064 376.668 18.28C376.932 18.472 377.124 18.736 377.244 19.072C377.388 19.408 377.508 19.816 377.604 20.296L378.18 23.428ZM435.589 55H424.429V25.372H408.805V43.912C408.805 44.776 409.009 45.496 409.417 46.072C409.849 46.624 410.461 46.9 411.253 46.9C411.661 46.9 411.997 46.864 412.261 46.792C412.549 46.696 412.789 46.6 412.981 46.504C413.197 46.384 413.389 46.288 413.557 46.216C413.749 46.12 413.965 46.072 414.205 46.072C414.541 46.072 414.805 46.156 414.997 46.324C415.213 46.468 415.429 46.708 415.645 47.044L419.029 52.336C417.589 53.416 415.969 54.232 414.169 54.784C412.369 55.312 410.509 55.576 408.589 55.576C406.813 55.576 405.241 55.324 403.873 54.82C402.529 54.292 401.389 53.56 400.453 52.624C399.541 51.664 398.845 50.512 398.365 49.168C397.885 47.824 397.645 46.324 397.645 44.668V25.372H394.477C393.901 25.372 393.409 25.192 393.001 24.832C392.593 24.448 392.389 23.896 392.389 23.176V18.82L398.329 17.632L400.525 8.56C400.813 7.408 401.629 6.832 402.973 6.832H408.805V17.74H435.589V55ZM444.625 1.972L435.265 11.44C434.713 11.992 434.185 12.388 433.681 12.628C433.177 12.844 432.505 12.952 431.665 12.952H424.969L429.865 4.132C430.273 3.436 430.753 2.908 431.305 2.548C431.857 2.164 432.697 1.972 433.825 1.972H444.625ZM453.693 21.7C454.413 21.028 455.157 20.404 455.925 19.828C456.693 19.252 457.509 18.772 458.373 18.388C459.261 17.98 460.209 17.668 461.217 17.452C462.249 17.212 463.365 17.092 464.565 17.092C466.605 17.092 468.405 17.452 469.965 18.172C471.549 18.868 472.881 19.852 473.961 21.124C475.041 22.372 475.857 23.872 476.409 25.624C476.961 27.352 477.237 29.236 477.237 31.276V55H466.077V31.276C466.077 29.452 465.657 28.036 464.817 27.028C463.977 25.996 462.741 25.48 461.109 25.48C459.885 25.48 458.733 25.744 457.653 26.272C456.597 26.776 455.565 27.472 454.557 28.36V55H443.397V17.668H450.309C451.701 17.668 452.613 18.292 453.045 19.54L453.693 21.7ZM34.2251 111.948L29.3651 97.584C29.0051 96.672 28.6211 95.604 28.2131 94.38C27.8051 93.132 27.3971 91.788 26.9891 90.348C26.6291 91.812 26.2451 93.168 25.8371 94.416C25.4291 95.664 25.0451 96.744 24.6851 97.656L19.8611 111.948H34.2251ZM53.5571 132H44.1251C43.0691 132 42.2171 131.76 41.5691 131.28C40.9211 130.776 40.4291 130.14 40.0931 129.372L36.9971 120.228H17.0531L13.9571 129.372C13.6931 130.044 13.2131 130.656 12.5171 131.208C11.8451 131.736 11.0051 132 9.99714 132H0.493138L20.7971 79.548H33.2531L53.5571 132ZM67.5566 78.108V132H56.3966V78.108H67.5566ZM86.2598 121.848C87.0998 122.76 88.0118 123.408 88.9958 123.792C89.9798 124.176 90.9758 124.368 91.9838 124.368C93.0398 124.368 94.0118 124.176 94.8998 123.792C95.7878 123.384 96.5438 122.736 97.1678 121.848C97.8158 120.936 98.3198 119.748 98.6798 118.284C99.0398 116.796 99.2198 114.972 99.2198 112.812C99.2198 110.94 99.0758 109.356 98.7878 108.06C98.5238 106.74 98.1158 105.672 97.5638 104.856C97.0358 104.016 96.3638 103.416 95.5478 103.056C94.7558 102.672 93.8438 102.48 92.8118 102.48C91.4438 102.48 90.2558 102.78 89.2478 103.38C88.2398 103.98 87.2438 104.856 86.2598 106.008V121.848ZM86.2598 98.628C87.6998 97.26 89.2718 96.168 90.9758 95.352C92.7038 94.512 94.6238 94.092 96.7358 94.092C98.8478 94.092 100.768 94.524 102.496 95.388C104.224 96.252 105.7 97.488 106.924 99.096C108.148 100.68 109.084 102.6 109.732 104.856C110.404 107.112 110.74 109.632 110.74 112.416C110.74 115.44 110.356 118.188 109.588 120.66C108.82 123.132 107.728 125.256 106.312 127.032C104.92 128.784 103.252 130.152 101.308 131.136C99.3638 132.096 97.2158 132.576 94.8638 132.576C93.7358 132.576 92.7278 132.468 91.8398 132.252C90.9518 132.036 90.1358 131.736 89.3918 131.352C88.6478 130.944 87.9638 130.464 87.3398 129.912C86.7398 129.36 86.1518 128.76 85.5758 128.112L85.1798 129.984C84.9878 130.752 84.6758 131.28 84.2438 131.568C83.8118 131.856 83.2358 132 82.5158 132H75.0998V78.108H86.2598V98.628ZM139.664 108.852C139.664 107.964 139.544 107.1 139.304 106.26C139.088 105.42 138.716 104.676 138.188 104.028C137.684 103.356 137.012 102.816 136.172 102.408C135.332 102 134.312 101.796 133.112 101.796C131 101.796 129.344 102.408 128.144 103.632C126.944 104.832 126.152 106.572 125.768 108.852H139.664ZM125.624 115.332C125.984 118.452 126.932 120.72 128.468 122.136C130.004 123.528 131.984 124.224 134.408 124.224C135.704 124.224 136.82 124.068 137.756 123.756C138.692 123.444 139.52 123.096 140.24 122.712C140.984 122.328 141.656 121.98 142.256 121.668C142.88 121.356 143.528 121.2 144.2 121.2C145.088 121.2 145.76 121.524 146.216 122.172L149.456 126.168C148.304 127.488 147.056 128.568 145.712 129.408C144.392 130.224 143.024 130.872 141.608 131.352C140.216 131.808 138.812 132.12 137.396 132.288C136.004 132.48 134.672 132.576 133.4 132.576C130.784 132.576 128.324 132.156 126.02 131.316C123.74 130.452 121.736 129.18 120.008 127.5C118.304 125.82 116.948 123.732 115.94 121.236C114.956 118.74 114.464 115.836 114.464 112.524C114.464 110.028 114.884 107.664 115.724 105.432C116.588 103.2 117.812 101.244 119.396 99.564C121.004 97.884 122.936 96.552 125.192 95.568C127.472 94.584 130.04 94.092 132.896 94.092C135.368 94.092 137.624 94.476 139.664 95.244C141.728 96.012 143.492 97.128 144.956 98.592C146.444 100.056 147.596 101.856 148.412 103.992C149.252 106.104 149.672 108.504 149.672 111.192C149.672 112.032 149.636 112.716 149.564 113.244C149.492 113.772 149.36 114.192 149.168 114.504C148.976 114.816 148.712 115.032 148.376 115.152C148.064 115.272 147.656 115.332 147.152 115.332H125.624ZM165.696 100.428C166.848 98.412 168.168 96.828 169.656 95.676C171.168 94.524 172.896 93.948 174.84 93.948C176.52 93.948 177.888 94.344 178.944 95.136L178.224 103.344C178.104 103.872 177.9 104.232 177.612 104.424C177.348 104.616 176.976 104.712 176.496 104.712C176.304 104.712 176.052 104.7 175.74 104.676C175.428 104.652 175.104 104.628 174.768 104.604C174.432 104.556 174.084 104.52 173.724 104.496C173.388 104.448 173.076 104.424 172.788 104.424C171.156 104.424 169.848 104.856 168.864 105.72C167.904 106.584 167.088 107.784 166.416 109.32V132H155.256V94.668H161.88C162.432 94.668 162.888 94.716 163.248 94.812C163.632 94.908 163.944 95.064 164.184 95.28C164.448 95.472 164.64 95.736 164.76 96.072C164.904 96.408 165.024 96.816 165.12 97.296L165.696 100.428ZM196.104 132.576C194.328 132.576 192.756 132.324 191.388 131.82C190.044 131.292 188.904 130.56 187.968 129.624C187.056 128.664 186.36 127.512 185.88 126.168C185.4 124.824 185.16 123.324 185.16 121.668V102.372H181.992C181.416 102.372 180.924 102.192 180.516 101.832C180.108 101.448 179.904 100.896 179.904 100.176V95.82L185.844 94.668L188.04 85.56C188.328 84.408 189.144 83.832 190.488 83.832H196.32V94.74H205.572V102.372H196.32V120.912C196.32 121.776 196.524 122.496 196.932 123.072C197.364 123.624 197.976 123.9 198.768 123.9C199.176 123.9 199.512 123.864 199.776 123.792C200.064 123.696 200.304 123.6 200.496 123.504C200.712 123.384 200.904 123.288 201.072 123.216C201.264 123.12 201.48 123.072 201.72 123.072C202.056 123.072 202.32 123.156 202.512 123.324C202.728 123.468 202.944 123.708 203.16 124.044L206.544 129.336C205.104 130.416 203.484 131.232 201.684 131.784C199.884 132.312 198.024 132.576 196.104 132.576ZM227.237 94.092C230.069 94.092 232.649 94.536 234.977 95.424C237.305 96.312 239.297 97.584 240.953 99.24C242.633 100.896 243.929 102.912 244.841 105.288C245.777 107.64 246.245 110.292 246.245 113.244C246.245 116.22 245.777 118.908 244.841 121.308C243.929 123.684 242.633 125.712 240.953 127.392C239.297 129.048 237.305 130.332 234.977 131.244C232.649 132.132 230.069 132.576 227.237 132.576C224.381 132.576 221.777 132.132 219.425 131.244C217.097 130.332 215.081 129.048 213.377 127.392C211.697 125.712 210.389 123.684 209.453 121.308C208.541 118.908 208.085 116.22 208.085 113.244C208.085 110.292 208.541 107.64 209.453 105.288C210.389 102.912 211.697 100.896 213.377 99.24C215.081 97.584 217.097 96.312 219.425 95.424C221.777 94.536 224.381 94.092 227.237 94.092ZM227.237 124.296C229.805 124.296 231.689 123.396 232.889 121.596C234.113 119.772 234.725 117.012 234.725 113.316C234.725 109.62 234.113 106.872 232.889 105.072C231.689 103.272 229.805 102.372 227.237 102.372C224.597 102.372 222.665 103.272 221.441 105.072C220.217 106.872 219.605 109.62 219.605 113.316C219.605 117.012 220.217 119.772 221.441 121.596C222.665 123.396 224.597 124.296 227.237 124.296ZM290.561 122.82C292.169 122.82 293.477 122.616 294.485 122.208C295.517 121.8 296.321 121.272 296.897 120.624C297.473 119.976 297.869 119.244 298.085 118.428C298.301 117.612 298.409 116.784 298.409 115.944C298.409 114.984 298.277 114.12 298.013 113.352C297.773 112.584 297.341 111.936 296.717 111.408C296.117 110.88 295.313 110.472 294.305 110.184C293.297 109.896 292.025 109.752 290.489 109.752H281.993V122.82H290.561ZM281.993 88.656V101.616H288.329C289.673 101.616 290.885 101.52 291.965 101.328C293.045 101.136 293.957 100.8 294.701 100.32C295.469 99.84 296.045 99.18 296.429 98.34C296.837 97.5 297.041 96.444 297.041 95.172C297.041 93.924 296.885 92.892 296.573 92.076C296.261 91.236 295.781 90.564 295.133 90.06C294.485 89.556 293.657 89.196 292.649 88.98C291.665 88.764 290.489 88.656 289.121 88.656H281.993ZM289.121 79.548C292.745 79.548 295.829 79.884 298.373 80.556C300.917 81.228 302.993 82.176 304.601 83.4C306.209 84.624 307.373 86.112 308.093 87.864C308.837 89.616 309.209 91.572 309.209 93.732C309.209 94.908 309.041 96.048 308.705 97.152C308.369 98.232 307.841 99.252 307.121 100.212C306.401 101.148 305.477 102.012 304.349 102.804C303.221 103.596 301.865 104.28 300.281 104.856C303.737 105.696 306.293 107.052 307.949 108.924C309.605 110.796 310.433 113.22 310.433 116.196C310.433 118.428 310.001 120.504 309.137 122.424C308.273 124.344 307.001 126.024 305.321 127.464C303.665 128.88 301.613 129.996 299.165 130.812C296.717 131.604 293.921 132 290.777 132H269.825V79.548H289.121ZM339.492 108.852C339.492 107.964 339.372 107.1 339.132 106.26C338.916 105.42 338.544 104.676 338.016 104.028C337.512 103.356 336.84 102.816 336 102.408C335.16 102 334.14 101.796 332.94 101.796C330.828 101.796 329.172 102.408 327.972 103.632C326.772 104.832 325.98 106.572 325.596 108.852H339.492ZM325.452 115.332C325.812 118.452 326.76 120.72 328.296 122.136C329.832 123.528 331.812 124.224 334.236 124.224C335.532 124.224 336.648 124.068 337.584 123.756C338.52 123.444 339.348 123.096 340.068 122.712C340.812 122.328 341.484 121.98 342.084 121.668C342.708 121.356 343.356 121.2 344.028 121.2C344.916 121.2 345.588 121.524 346.044 122.172L349.284 126.168C348.132 127.488 346.884 128.568 345.54 129.408C344.22 130.224 342.852 130.872 341.436 131.352C340.044 131.808 338.64 132.12 337.224 132.288C335.832 132.48 334.5 132.576 333.228 132.576C330.612 132.576 328.152 132.156 325.848 131.316C323.568 130.452 321.564 129.18 319.836 127.5C318.132 125.82 316.776 123.732 315.768 121.236C314.784 118.74 314.292 115.836 314.292 112.524C314.292 110.028 314.712 107.664 315.552 105.432C316.416 103.2 317.64 101.244 319.224 99.564C320.832 97.884 322.764 96.552 325.02 95.568C327.3 94.584 329.868 94.092 332.724 94.092C335.196 94.092 337.452 94.476 339.492 95.244C341.556 96.012 343.32 97.128 344.784 98.592C346.272 100.056 347.424 101.856 348.24 103.992C349.08 106.104 349.5 108.504 349.5 111.192C349.5 112.032 349.464 112.716 349.392 113.244C349.32 113.772 349.188 114.192 348.996 114.504C348.804 114.816 348.54 115.032 348.204 115.152C347.892 115.272 347.484 115.332 346.98 115.332H325.452ZM365.38 98.7C366.1 98.028 366.844 97.404 367.612 96.828C368.38 96.252 369.196 95.772 370.06 95.388C370.948 94.98 371.896 94.668 372.904 94.452C373.936 94.212 375.052 94.092 376.252 94.092C378.292 94.092 380.092 94.452 381.652 95.172C383.236 95.868 384.568 96.852 385.648 98.124C386.728 99.372 387.544 100.872 388.096 102.624C388.648 104.352 388.924 106.236 388.924 108.276V132H377.764V108.276C377.764 106.452 377.344 105.036 376.504 104.028C375.664 102.996 374.428 102.48 372.796 102.48C371.572 102.48 370.42 102.744 369.34 103.272C368.284 103.776 367.252 104.472 366.244 105.36V132H355.084V94.668H361.996C363.388 94.668 364.3 95.292 364.732 96.54L365.38 98.7ZM407.559 94.668V132H396.399V94.668H407.559ZM408.711 84.444C408.711 85.332 408.531 86.172 408.171 86.964C407.811 87.732 407.319 88.416 406.695 89.016C406.071 89.592 405.339 90.06 404.499 90.42C403.683 90.756 402.807 90.924 401.871 90.924C400.959 90.924 400.107 90.756 399.315 90.42C398.523 90.06 397.815 89.592 397.191 89.016C396.591 88.416 396.111 87.732 395.751 86.964C395.415 86.172 395.247 85.332 395.247 84.444C395.247 83.532 395.415 82.68 395.751 81.888C396.111 81.096 396.591 80.4 397.191 79.8C397.815 79.2 398.523 78.732 399.315 78.396C400.107 78.06 400.959 77.892 401.871 77.892C402.807 77.892 403.683 78.06 404.499 78.396C405.339 78.732 406.071 79.2 406.695 79.8C407.319 80.4 407.811 81.096 408.171 81.888C408.531 82.68 408.711 83.532 408.711 84.444ZM428.698 132.576C426.922 132.576 425.35 132.324 423.982 131.82C422.638 131.292 421.498 130.56 420.562 129.624C419.65 128.664 418.954 127.512 418.474 126.168C417.994 124.824 417.754 123.324 417.754 121.668V102.372H414.586C414.01 102.372 413.518 102.192 413.11 101.832C412.702 101.448 412.498 100.896 412.498 100.176V95.82L418.438 94.668L420.634 85.56C420.922 84.408 421.738 83.832 423.082 83.832H428.914V94.74H438.166V102.372H428.914V120.912C428.914 121.776 429.118 122.496 429.526 123.072C429.958 123.624 430.57 123.9 431.362 123.9C431.77 123.9 432.106 123.864 432.37 123.792C432.658 123.696 432.898 123.6 433.09 123.504C433.306 123.384 433.498 123.288 433.666 123.216C433.858 123.12 434.074 123.072 434.314 123.072C434.65 123.072 434.914 123.156 435.106 123.324C435.322 123.468 435.538 123.708 435.754 124.044L439.138 129.336C437.698 130.416 436.078 131.232 434.278 131.784C432.478 132.312 430.618 132.576 428.698 132.576ZM459.831 94.092C462.663 94.092 465.243 94.536 467.571 95.424C469.899 96.312 471.891 97.584 473.547 99.24C475.227 100.896 476.523 102.912 477.435 105.288C478.371 107.64 478.839 110.292 478.839 113.244C478.839 116.22 478.371 118.908 477.435 121.308C476.523 123.684 475.227 125.712 473.547 127.392C471.891 129.048 469.899 130.332 467.571 131.244C465.243 132.132 462.663 132.576 459.831 132.576C456.975 132.576 454.371 132.132 452.019 131.244C449.691 130.332 447.675 129.048 445.971 127.392C444.291 125.712 442.983 123.684 442.047 121.308C441.135 118.908 440.679 116.22 440.679 113.244C440.679 110.292 441.135 107.64 442.047 105.288C442.983 102.912 444.291 100.896 445.971 99.24C447.675 97.584 449.691 96.312 452.019 95.424C454.371 94.536 456.975 94.092 459.831 94.092ZM459.831 124.296C462.399 124.296 464.283 123.396 465.483 121.596C466.707 119.772 467.319 117.012 467.319 113.316C467.319 109.62 466.707 106.872 465.483 105.072C464.283 103.272 462.399 102.372 459.831 102.372C457.191 102.372 455.259 103.272 454.035 105.072C452.811 106.872 452.199 109.62 452.199 113.316C452.199 117.012 452.811 119.772 454.035 121.596C455.259 123.396 457.191 124.296 459.831 124.296ZM156.387 156.548V209H145.659V178.832C145.659 178.136 145.671 177.38 145.695 176.564C145.743 175.748 145.815 174.92 145.911 174.08L131.979 201.044C131.547 201.884 130.959 202.52 130.215 202.952C129.495 203.384 128.667 203.6 127.731 203.6H126.075C125.139 203.6 124.299 203.384 123.555 202.952C122.835 202.52 122.259 201.884 121.827 201.044L107.895 174.008C107.967 174.872 108.027 175.724 108.075 176.564C108.123 177.38 108.147 178.136 108.147 178.832V209H97.4192V156.548H106.707C107.235 156.548 107.691 156.56 108.075 156.584C108.483 156.608 108.843 156.68 109.155 156.8C109.467 156.92 109.743 157.112 109.983 157.376C110.247 157.616 110.499 157.964 110.739 158.42L124.239 185.024C124.719 185.936 125.175 186.884 125.607 187.868C126.063 188.852 126.495 189.86 126.903 190.892C127.311 189.836 127.731 188.804 128.163 187.796C128.619 186.788 129.099 185.828 129.603 184.916L143.067 158.42C143.307 157.964 143.547 157.616 143.787 157.376C144.051 157.112 144.339 156.92 144.651 156.8C144.963 156.68 145.311 156.608 145.695 156.584C146.103 156.56 146.571 156.548 147.099 156.548H156.387ZM183.727 193.808C181.495 193.904 179.659 194.096 178.219 194.384C176.779 194.672 175.639 195.032 174.799 195.464C173.959 195.896 173.371 196.388 173.035 196.94C172.723 197.492 172.567 198.092 172.567 198.74C172.567 200.012 172.915 200.912 173.611 201.44C174.307 201.944 175.327 202.196 176.671 202.196C178.111 202.196 179.371 201.944 180.451 201.44C181.531 200.936 182.623 200.12 183.727 198.992V193.808ZM163.639 176.852C165.895 174.86 168.391 173.384 171.127 172.424C173.887 171.44 176.839 170.948 179.983 170.948C182.239 170.948 184.267 171.32 186.067 172.064C187.891 172.784 189.427 173.804 190.675 175.124C191.947 176.42 192.919 177.968 193.591 179.768C194.263 181.568 194.599 183.536 194.599 185.672V209H189.487C188.431 209 187.627 208.856 187.075 208.568C186.547 208.28 186.103 207.68 185.743 206.768L184.951 204.716C184.015 205.508 183.115 206.204 182.251 206.804C181.387 207.404 180.487 207.92 179.551 208.352C178.639 208.76 177.655 209.06 176.599 209.252C175.567 209.468 174.415 209.576 173.143 209.576C171.439 209.576 169.891 209.36 168.499 208.928C167.107 208.472 165.919 207.812 164.935 206.948C163.975 206.084 163.231 205.016 162.703 203.744C162.175 202.448 161.911 200.96 161.911 199.28C161.911 197.936 162.247 196.58 162.919 195.212C163.591 193.82 164.755 192.56 166.411 191.432C168.067 190.28 170.299 189.32 173.107 188.552C175.915 187.784 179.455 187.352 183.727 187.256V185.672C183.727 183.488 183.271 181.916 182.359 180.956C181.471 179.972 180.199 179.48 178.543 179.48C177.223 179.48 176.143 179.624 175.303 179.912C174.463 180.2 173.707 180.524 173.035 180.884C172.387 181.244 171.751 181.568 171.127 181.856C170.503 182.144 169.759 182.288 168.895 182.288C168.127 182.288 167.479 182.096 166.951 181.712C166.423 181.328 165.991 180.872 165.655 180.344L163.639 176.852ZM212.173 177.428C213.325 175.412 214.645 173.828 216.133 172.676C217.645 171.524 219.373 170.948 221.317 170.948C222.997 170.948 224.365 171.344 225.421 172.136L224.701 180.344C224.581 180.872 224.377 181.232 224.089 181.424C223.825 181.616 223.453 181.712 222.973 181.712C222.781 181.712 222.529 181.7 222.217 181.676C221.905 181.652 221.581 181.628 221.245 181.604C220.909 181.556 220.561 181.52 220.201 181.496C219.865 181.448 219.553 181.424 219.265 181.424C217.633 181.424 216.325 181.856 215.341 182.72C214.381 183.584 213.565 184.784 212.893 186.32V209H201.733V171.668H208.357C208.909 171.668 209.365 171.716 209.725 171.812C210.109 171.908 210.421 172.064 210.661 172.28C210.925 172.472 211.117 172.736 211.237 173.072C211.381 173.408 211.501 173.816 211.597 174.296L212.173 177.428ZM269.581 209H258.421V179.372H242.797V197.912C242.797 198.776 243.001 199.496 243.409 200.072C243.841 200.624 244.453 200.9 245.245 200.9C245.653 200.9 245.989 200.864 246.253 200.792C246.541 200.696 246.781 200.6 246.973 200.504C247.189 200.384 247.381 200.288 247.549 200.216C247.741 200.12 247.957 200.072 248.197 200.072C248.533 200.072 248.797 200.156 248.989 200.324C249.205 200.468 249.421 200.708 249.637 201.044L253.021 206.336C251.581 207.416 249.961 208.232 248.161 208.784C246.361 209.312 244.501 209.576 242.581 209.576C240.805 209.576 239.233 209.324 237.865 208.82C236.521 208.292 235.381 207.56 234.445 206.624C233.533 205.664 232.837 204.512 232.357 203.168C231.877 201.824 231.637 200.324 231.637 198.668V179.372H228.469C227.893 179.372 227.401 179.192 226.993 178.832C226.585 178.448 226.381 177.896 226.381 177.176V172.82L232.321 171.632L234.517 162.56C234.805 161.408 235.621 160.832 236.965 160.832H242.797V171.74H269.581V209ZM278.617 155.972L269.257 165.44C268.705 165.992 268.177 166.388 267.673 166.628C267.169 166.844 266.497 166.952 265.657 166.952H258.961L263.857 158.132C264.265 157.436 264.745 156.908 265.297 156.548C265.849 156.164 266.689 155.972 267.817 155.972H278.617ZM316.085 199.82C317.693 199.82 319.001 199.616 320.009 199.208C321.041 198.8 321.845 198.272 322.421 197.624C322.997 196.976 323.393 196.244 323.609 195.428C323.825 194.612 323.933 193.784 323.933 192.944C323.933 191.984 323.801 191.12 323.537 190.352C323.297 189.584 322.865 188.936 322.241 188.408C321.641 187.88 320.837 187.472 319.829 187.184C318.821 186.896 317.549 186.752 316.013 186.752H307.517V199.82H316.085ZM307.517 165.656V178.616H313.853C315.197 178.616 316.409 178.52 317.489 178.328C318.569 178.136 319.481 177.8 320.225 177.32C320.993 176.84 321.569 176.18 321.953 175.34C322.361 174.5 322.565 173.444 322.565 172.172C322.565 170.924 322.409 169.892 322.097 169.076C321.785 168.236 321.305 167.564 320.657 167.06C320.009 166.556 319.181 166.196 318.173 165.98C317.189 165.764 316.013 165.656 314.645 165.656H307.517ZM314.645 156.548C318.269 156.548 321.353 156.884 323.897 157.556C326.441 158.228 328.517 159.176 330.125 160.4C331.733 161.624 332.897 163.112 333.617 164.864C334.361 166.616 334.733 168.572 334.733 170.732C334.733 171.908 334.565 173.048 334.229 174.152C333.893 175.232 333.365 176.252 332.645 177.212C331.925 178.148 331.001 179.012 329.873 179.804C328.745 180.596 327.389 181.28 325.805 181.856C329.261 182.696 331.817 184.052 333.473 185.924C335.129 187.796 335.957 190.22 335.957 193.196C335.957 195.428 335.525 197.504 334.661 199.424C333.797 201.344 332.525 203.024 330.845 204.464C329.189 205.88 327.137 206.996 324.689 207.812C322.241 208.604 319.445 209 316.301 209H295.349V156.548H314.645ZM352.094 177.428C353.246 175.412 354.566 173.828 356.054 172.676C357.566 171.524 359.294 170.948 361.238 170.948C362.918 170.948 364.286 171.344 365.342 172.136L364.622 180.344C364.502 180.872 364.298 181.232 364.01 181.424C363.746 181.616 363.374 181.712 362.894 181.712C362.702 181.712 362.45 181.7 362.138 181.676C361.826 181.652 361.502 181.628 361.166 181.604C360.83 181.556 360.482 181.52 360.122 181.496C359.786 181.448 359.474 181.424 359.186 181.424C357.554 181.424 356.246 181.856 355.262 182.72C354.302 183.584 353.486 184.784 352.814 186.32V209H341.654V171.668H348.278C348.83 171.668 349.286 171.716 349.646 171.812C350.03 171.908 350.342 172.064 350.582 172.28C350.846 172.472 351.038 172.736 351.158 173.072C351.302 173.408 351.422 173.816 351.518 174.296L352.094 177.428ZM388.055 193.808C385.823 193.904 383.987 194.096 382.547 194.384C381.107 194.672 379.967 195.032 379.127 195.464C378.287 195.896 377.699 196.388 377.363 196.94C377.051 197.492 376.895 198.092 376.895 198.74C376.895 200.012 377.243 200.912 377.939 201.44C378.635 201.944 379.655 202.196 380.999 202.196C382.439 202.196 383.699 201.944 384.779 201.44C385.859 200.936 386.951 200.12 388.055 198.992V193.808ZM367.967 176.852C370.223 174.86 372.719 173.384 375.455 172.424C378.215 171.44 381.167 170.948 384.311 170.948C386.567 170.948 388.595 171.32 390.395 172.064C392.219 172.784 393.755 173.804 395.003 175.124C396.275 176.42 397.247 177.968 397.919 179.768C398.591 181.568 398.927 183.536 398.927 185.672V209H393.815C392.759 209 391.955 208.856 391.403 208.568C390.875 208.28 390.431 207.68 390.071 206.768L389.279 204.716C388.343 205.508 387.443 206.204 386.579 206.804C385.715 207.404 384.815 207.92 383.879 208.352C382.967 208.76 381.983 209.06 380.927 209.252C379.895 209.468 378.743 209.576 377.471 209.576C375.767 209.576 374.219 209.36 372.827 208.928C371.435 208.472 370.247 207.812 369.263 206.948C368.303 206.084 367.559 205.016 367.031 203.744C366.503 202.448 366.239 200.96 366.239 199.28C366.239 197.936 366.575 196.58 367.247 195.212C367.919 193.82 369.083 192.56 370.739 191.432C372.395 190.28 374.627 189.32 377.435 188.552C380.243 187.784 383.783 187.352 388.055 187.256V185.672C388.055 183.488 387.599 181.916 386.687 180.956C385.799 179.972 384.527 179.48 382.871 179.48C381.551 179.48 380.471 179.624 379.631 179.912C378.791 180.2 378.035 180.524 377.363 180.884C376.715 181.244 376.079 181.568 375.455 181.856C374.831 182.144 374.087 182.288 373.223 182.288C372.455 182.288 371.807 182.096 371.279 181.712C370.751 181.328 370.319 180.872 369.983 180.344L367.967 176.852ZM440.248 171.668L425.776 209H415.624L401.152 171.668H410.44C411.232 171.668 411.892 171.86 412.42 172.244C412.972 172.604 413.344 173.06 413.536 173.612L418.72 190.352C419.176 191.72 419.572 193.052 419.908 194.348C420.268 195.644 420.58 196.94 420.844 198.236C421.372 195.644 422.104 193.016 423.04 190.352L428.44 173.612C428.632 173.06 428.992 172.604 429.52 172.244C430.048 171.86 430.672 171.668 431.392 171.668H440.248ZM459.831 171.092C462.663 171.092 465.243 171.536 467.571 172.424C469.899 173.312 471.891 174.584 473.547 176.24C475.227 177.896 476.523 179.912 477.435 182.288C478.371 184.64 478.839 187.292 478.839 190.244C478.839 193.22 478.371 195.908 477.435 198.308C476.523 200.684 475.227 202.712 473.547 204.392C471.891 206.048 469.899 207.332 467.571 208.244C465.243 209.132 462.663 209.576 459.831 209.576C456.975 209.576 454.371 209.132 452.019 208.244C449.691 207.332 447.675 206.048 445.971 204.392C444.291 202.712 442.983 200.684 442.047 198.308C441.135 195.908 440.679 193.22 440.679 190.244C440.679 187.292 441.135 184.64 442.047 182.288C442.983 179.912 444.291 177.896 445.971 176.24C447.675 174.584 449.691 173.312 452.019 172.424C454.371 171.536 456.975 171.092 459.831 171.092ZM459.831 201.296C462.399 201.296 464.283 200.396 465.483 198.596C466.707 196.772 467.319 194.012 467.319 190.316C467.319 186.62 466.707 183.872 465.483 182.072C464.283 180.272 462.399 179.372 459.831 179.372C457.191 179.372 455.259 180.272 454.035 182.072C452.811 183.872 452.199 186.62 452.199 190.316C452.199 194.012 452.811 196.772 454.035 198.596C455.259 200.396 457.191 201.296 459.831 201.296Z" fill="black"/>
</svg>
