<svg width="883" height="338" viewBox="0 0 883 338" fill="none" xmlns="http://www.w3.org/2000/svg">
<path d="M194.464 49.704C191.456 48.68 187.872 48.168 183.712 48.168C173.152 48.168 167.872 56.008 167.872 71.688C167.872 86.408 173.312 93.768 184.192 93.768C187.008 93.768 189.92 93.224 192.928 92.136C196 90.984 198.368 89.832 200.032 88.68L202.432 87.048L207.712 95.688C207.456 95.944 207.072 96.328 206.56 96.84C206.048 97.288 204.928 98.12 203.2 99.336C201.536 100.552 199.776 101.608 197.92 102.504C196.064 103.4 193.728 104.232 190.912 105C188.16 105.768 185.376 106.152 182.56 106.152C172.768 106.152 165.184 103.272 159.808 97.512C154.496 91.688 151.84 83.24 151.84 72.168C151.84 60.968 154.752 52.168 160.576 45.768C166.4 39.368 174.272 36.168 184.192 36.168C187.648 36.168 191.232 36.552 194.944 37.32C198.656 38.024 201.504 38.76 203.488 39.528L206.56 40.68L206.08 58.92H196.672L194.464 49.704ZM213.985 53.928L233.857 53.16L234.721 59.784C235.233 59.208 235.937 58.504 236.833 57.672C237.729 56.84 239.329 55.72 241.633 54.312C244.001 52.904 246.145 52.2 248.065 52.2C249.601 52.2 251.073 52.36 252.481 52.68C253.953 52.936 255.041 53.224 255.745 53.544L256.705 53.928L255.937 72.168H247.585L246.145 64.008C244.481 64.008 242.785 64.456 241.057 65.352C239.329 66.248 238.017 67.144 237.121 68.04L235.777 69.384V94.92L244.897 97.32V105H213.985V97.32L221.665 94.92V63.528L213.985 61.608V53.928ZM307.992 81.96L276.12 82.248C276.376 86.216 277.528 89.288 279.576 91.464C281.688 93.64 284.376 94.728 287.64 94.728C290.008 94.728 292.536 94.376 295.224 93.672C297.912 92.904 299.992 92.136 301.464 91.368L303.768 90.216L307.896 97.896C307.192 98.472 306.2 99.208 304.92 100.104C303.64 101 301.08 102.216 297.24 103.752C293.4 105.224 289.656 105.96 286.008 105.96C277.88 105.96 271.672 103.72 267.384 99.24C263.16 94.696 261.048 88.296 261.048 80.04C261.048 71.528 263.32 64.776 267.864 59.784C272.408 54.728 278.68 52.2 286.68 52.2C293.72 52.2 299.128 54.216 302.904 58.248C306.68 62.28 308.568 67.784 308.568 74.76L307.992 81.96ZM285.72 63.432C283.096 63.432 280.952 64.328 279.288 66.12C277.688 67.912 276.696 70.312 276.312 73.32H293.592C293.592 66.728 290.968 63.432 285.72 63.432ZM319.669 88.776V63.336L312.661 61.608V53.928L333.877 53.16V86.088C333.877 88.712 334.293 90.664 335.125 91.944C335.957 93.16 337.333 93.768 339.253 93.768C341.045 93.768 342.869 93.352 344.725 92.52C346.645 91.624 348.117 90.728 349.141 89.832L350.581 88.488V63.336L343.477 61.608V53.928L364.693 53.16V94.92L371.989 96.84V104.328L352.405 105L351.445 98.28C351.253 98.472 350.933 98.76 350.485 99.144C350.101 99.464 349.301 100.072 348.085 100.968C346.869 101.864 345.621 102.664 344.341 103.368C343.061 104.008 341.493 104.584 339.637 105.096C337.845 105.672 336.117 105.96 334.453 105.96C329.653 105.96 325.973 104.456 323.413 101.448C320.917 98.44 319.669 94.216 319.669 88.776ZM429.457 96.648V105H400.465V96.648L407.665 94.248V48.648L400.465 45.768V37.8L422.545 37.32H429.841C437.841 37.32 443.985 38.984 448.273 42.312C452.625 45.576 454.801 50.44 454.801 56.904C454.801 65.416 451.185 71.464 443.953 75.048C445.553 76.904 446.897 78.984 447.985 81.288L454.417 94.44L460.945 96.648V105H443.185L435.121 87.24C433.393 83.4 432.017 80.968 430.993 79.944C430.033 78.92 428.337 78.408 425.905 78.408H422.545V94.248L429.457 96.648ZM422.545 48.648V68.328H428.017C431.793 68.328 434.737 67.464 436.849 65.736C438.961 63.944 440.017 61.448 440.017 58.248C440.017 55.368 439.153 53.064 437.425 51.336C435.697 49.544 433.361 48.648 430.417 48.648H422.545ZM491.155 52.2C498.899 52.2 504.851 54.472 509.011 59.016C513.235 63.496 515.347 69.864 515.347 78.12C515.347 86.696 513.011 93.48 508.339 98.472C503.731 103.464 497.523 105.96 489.715 105.96C473.395 105.96 465.235 97.16 465.235 79.56C465.235 70.984 467.571 64.296 472.243 59.496C476.915 54.632 483.219 52.2 491.155 52.2ZM490.675 63.24C487.027 63.24 484.339 64.424 482.611 66.792C480.947 69.16 480.115 73.256 480.115 79.08C480.115 84.584 480.915 88.616 482.515 91.176C484.115 93.672 486.675 94.92 490.195 94.92C493.715 94.92 496.307 93.672 497.971 91.176C499.635 88.68 500.467 84.488 500.467 78.6C500.467 73.416 499.667 69.576 498.067 67.08C496.531 64.52 494.067 63.24 490.675 63.24ZM521.472 128.52L514.175 127.848L515.327 118.92H520.32C523.136 118.92 525.152 118.12 526.368 116.52C527.584 114.984 528.192 112.616 528.192 109.416V63.528L520.512 61.608V53.928L542.4 53.16V103.752C542.4 112.392 540.864 118.664 537.792 122.568C534.72 126.536 529.28 128.52 521.472 128.52ZM526.272 37.32C526.272 34.76 527.04 32.68 528.576 31.08C530.176 29.48 532.16 28.68 534.528 28.68C539.904 28.68 542.592 31.56 542.592 37.32C542.592 39.88 541.792 41.992 540.192 43.656C538.656 45.256 536.768 46.056 534.528 46.056C531.904 46.056 529.856 45.32 528.384 43.848C526.976 42.312 526.272 40.136 526.272 37.32ZM604.064 104.328L585.056 105L583.328 98.76C582.752 99.272 581.984 99.944 581.024 100.776C580.064 101.544 578.208 102.6 575.456 103.944C572.768 105.288 570.208 105.96 567.776 105.96C563.104 105.96 559.456 104.648 556.832 102.024C554.208 99.4 552.896 95.688 552.896 90.888C552.896 80.328 560.576 75.048 575.936 75.048H582.656V69.768C582.656 64.968 580.192 62.568 575.264 62.568C573.792 62.568 572.352 62.696 570.944 62.952C569.536 63.208 568.48 63.464 567.776 63.72L566.816 64.008L565.376 70.248H556.736L556.064 56.04C563.808 53.48 570.752 52.2 576.896 52.2C584.192 52.2 589.344 53.64 592.352 56.52C595.36 59.336 596.864 64.232 596.864 71.208V94.92L604.064 96.648V104.328ZM566.72 89.448C566.72 93.288 568.608 95.208 572.384 95.208C573.92 95.208 575.52 94.76 577.184 93.864C578.912 92.904 580.256 91.944 581.216 90.984L582.656 89.64V83.208H577.184C573.472 83.208 570.784 83.72 569.12 84.744C567.52 85.704 566.72 87.272 566.72 89.448ZM197.92 172.864L195.328 161.92C191.872 160.64 187.776 160 183.04 160C176.512 160 171.52 162.368 168.064 167.104C164.608 171.84 162.88 178.464 162.88 186.976C162.88 195.552 164.736 201.92 168.448 206.08C172.224 210.24 177.248 212.32 183.52 212.32C184.928 212.32 186.432 212.16 188.032 211.84C189.696 211.52 191.296 211.072 192.832 210.496C194.368 209.856 195.776 209.216 197.056 208.576C198.336 207.872 199.392 207.2 200.224 206.56L202.72 204.64L206.56 210.88C205.152 212.288 203.52 213.6 201.664 214.816C199.872 216.032 197.92 217.12 195.808 218.08C193.76 218.976 191.616 219.68 189.376 220.192C187.136 220.704 184.864 220.96 182.56 220.96C172.768 220.96 165.184 218.144 159.808 212.512C154.496 206.816 151.84 198.528 151.84 187.648C151.84 182.208 152.576 177.28 154.048 172.864C155.584 168.448 157.76 164.704 160.576 161.632C163.392 158.496 166.752 156.096 170.656 154.432C174.624 152.704 179.072 151.84 184 151.84C185.472 151.84 187.072 151.968 188.8 152.224C190.592 152.416 192.32 152.704 193.984 153.088C195.712 153.472 197.312 153.888 198.784 154.336C200.32 154.72 201.568 155.104 202.528 155.488L205.6 156.64L205.12 172.864H197.92ZM217.075 172C223.987 169.44 230.323 168.16 236.083 168.16C241.715 168.16 246.035 169.312 249.043 171.616C252.051 173.856 253.555 177.664 253.555 183.04V212.32L261.235 214.24V219.52L246.355 220L244.339 213.28C239.219 218.4 234.163 220.96 229.171 220.96C224.179 220.96 220.435 219.712 217.939 217.216C215.443 214.72 214.195 211.168 214.195 206.56C214.195 196.64 221.555 191.68 236.275 191.68H243.955V184C243.955 178.24 240.915 175.36 234.835 175.36C231.379 175.36 228.531 175.712 226.291 176.416L225.139 176.8L223.795 184H217.555L217.075 172ZM243.955 197.92H237.235C232.435 197.92 229.011 198.56 226.963 199.84C224.979 201.056 223.987 202.976 223.987 205.6C223.987 208.096 224.563 210.016 225.715 211.36C226.931 212.64 228.659 213.28 230.899 213.28C231.987 213.28 233.075 213.088 234.163 212.704C235.315 212.32 236.403 211.84 237.427 211.264C238.515 210.688 239.475 210.08 240.307 209.44C241.139 208.736 241.811 208.096 242.323 207.52L243.955 205.6V197.92ZM284.508 146.08V212.32L294.108 214.72V220H266.556V214.72L274.716 212.32V153.76L266.556 151.84V146.56L284.508 146.08ZM343.105 146.08V212.32L351.265 214.24V219.52L334.945 220L334.177 214.528C329.889 218.816 324.609 220.96 318.337 220.96C312.129 220.96 307.329 218.752 303.937 214.336C300.609 209.856 298.945 203.68 298.945 195.808C298.945 187.424 301.089 180.736 305.377 175.744C309.665 170.688 316.001 168.16 324.385 168.16C327.521 168.16 330.561 168.672 333.505 169.696V153.76L325.345 151.84V146.56L343.105 146.08ZM333.505 206.08V177.76C331.265 176.48 327.905 175.84 323.425 175.84C313.825 175.84 309.025 182.24 309.025 195.04C309.025 200.672 309.985 205.12 311.905 208.384C313.889 211.648 316.929 213.28 321.025 213.28C324.161 213.28 326.817 212.448 328.993 210.784C331.041 209.12 332.545 207.552 333.505 206.08ZM400.728 195.808L367.608 196C367.608 201.248 368.856 205.44 371.352 208.576C373.912 211.712 377.304 213.28 381.528 213.28C382.936 213.28 384.344 213.152 385.752 212.896C387.16 212.64 388.472 212.32 389.688 211.936C390.968 211.552 392.12 211.136 393.144 210.688C394.168 210.176 395.032 209.696 395.736 209.248L397.656 208L401.016 212.992C398.84 214.72 396.824 216.096 394.968 217.12C393.176 218.08 391.032 218.976 388.536 219.808C386.104 220.576 383.448 220.96 380.568 220.96C373.016 220.96 367.288 218.688 363.384 214.144C359.48 209.536 357.528 203.264 357.528 195.328C357.528 191.36 358.104 187.712 359.256 184.384C360.408 181.056 362.008 178.208 364.056 175.84C366.168 173.408 368.664 171.52 371.544 170.176C374.424 168.832 377.592 168.16 381.048 168.16C394.488 168.16 401.208 175.68 401.208 190.72L400.728 195.808ZM367.992 188.8H391.032C391.032 184.896 390.2 181.728 388.536 179.296C386.872 176.864 384.184 175.648 380.472 175.648C376.824 175.648 373.912 176.896 371.736 179.392C369.56 181.824 368.312 184.96 367.992 188.8ZM409.01 204.64H415.73L416.786 212.896C417.426 213.152 418.418 213.376 419.762 213.568C421.17 213.696 422.546 213.76 423.89 213.76C428.05 213.76 431.058 213.152 432.914 211.936C434.834 210.656 435.794 208.736 435.794 206.176C435.794 204.448 435.122 203.072 433.778 202.048C432.498 201.024 430.866 200.16 428.882 199.456C426.898 198.752 424.722 198.048 422.354 197.344C420.05 196.64 417.906 195.744 415.922 194.656C413.938 193.504 412.274 192.032 410.93 190.24C409.65 188.448 409.01 186.08 409.01 183.136C409.01 178.336 410.61 174.688 413.81 172.192C417.01 169.632 421.266 168.288 426.578 168.16C428.818 168.224 431.09 168.416 433.394 168.736C435.762 168.992 438.162 169.504 440.594 170.272L442.994 171.04L442.706 184H436.466L434.93 176.512C434.418 176.32 433.426 176.096 431.954 175.84C430.482 175.52 428.914 175.36 427.25 175.36C426.098 175.36 425.01 175.456 423.986 175.648C422.962 175.84 422.034 176.16 421.202 176.608C420.434 177.056 419.794 177.696 419.282 178.528C418.834 179.36 418.61 180.384 418.61 181.6C418.61 183.456 419.25 184.928 420.53 186.016C421.874 187.04 423.538 187.936 425.522 188.704C427.506 189.472 429.65 190.208 431.954 190.912C434.322 191.616 436.498 192.544 438.482 193.696C440.466 194.784 442.098 196.192 443.378 197.92C444.722 199.648 445.394 201.92 445.394 204.736C445.394 207.424 444.818 209.792 443.666 211.84C442.514 213.888 440.946 215.616 438.962 217.024C437.042 218.368 434.77 219.36 432.146 220C429.586 220.704 426.834 221.056 423.89 221.056C422.802 221.056 421.65 220.992 420.434 220.864C419.282 220.8 418.13 220.672 416.978 220.48C415.826 220.352 414.738 220.192 413.714 220C412.754 219.808 411.954 219.616 411.314 219.424L409.106 218.848L409.01 204.64ZM477.666 197.92V189.76H502.626V197.92H477.666ZM533.871 220V214.24L542.031 212.32V160.48L533.871 158.56V153.28L552.111 152.8H562.191C569.295 152.8 574.735 154.56 578.511 158.08C582.351 161.6 584.271 166.4 584.271 172.48C584.271 179.84 581.999 185.44 577.455 189.28C572.975 193.12 566.607 195.04 558.351 195.04H552.111V212.32L560.271 214.24V220H533.871ZM552.111 160.48V187.36H558.351C568.911 187.36 574.191 182.88 574.191 173.92C574.191 169.952 573.103 166.72 570.927 164.224C568.751 161.728 565.679 160.48 561.711 160.48H552.111ZM593.856 172C600.768 169.44 607.104 168.16 612.864 168.16C618.496 168.16 622.816 169.312 625.824 171.616C628.832 173.856 630.336 177.664 630.336 183.04V212.32L638.016 214.24V219.52L623.136 220L621.12 213.28C616 218.4 610.944 220.96 605.952 220.96C600.96 220.96 597.216 219.712 594.72 217.216C592.224 214.72 590.976 211.168 590.976 206.56C590.976 196.64 598.336 191.68 613.056 191.68H620.736V184C620.736 178.24 617.696 175.36 611.616 175.36C608.16 175.36 605.312 175.712 603.072 176.416L601.92 176.8L600.576 184H594.336L593.856 172ZM620.736 197.92H614.016C609.216 197.92 605.792 198.56 603.744 199.84C601.76 201.056 600.768 202.976 600.768 205.6C600.768 208.096 601.344 210.016 602.496 211.36C603.712 212.64 605.44 213.28 607.68 213.28C608.768 213.28 609.856 213.088 610.944 212.704C612.096 212.32 613.184 211.84 614.208 211.264C615.296 210.688 616.256 210.08 617.088 209.44C617.92 208.736 618.592 208.096 619.104 207.52L620.736 205.6V197.92ZM661.29 146.08V212.32L670.89 214.72V220H643.338V214.72L651.498 212.32V153.76L643.338 151.84V146.56L661.29 146.08ZM678.606 172C685.518 169.44 691.854 168.16 697.614 168.16C703.246 168.16 707.566 169.312 710.574 171.616C713.582 173.856 715.086 177.664 715.086 183.04V212.32L722.766 214.24V219.52L707.886 220L705.87 213.28C700.75 218.4 695.694 220.96 690.702 220.96C685.71 220.96 681.966 219.712 679.47 217.216C676.974 214.72 675.726 211.168 675.726 206.56C675.726 196.64 683.086 191.68 697.806 191.68H705.486V184C705.486 178.24 702.446 175.36 696.366 175.36C692.91 175.36 690.062 175.712 687.822 176.416L686.67 176.8L685.326 184H679.086L678.606 172ZM705.486 197.92H698.766C693.966 197.92 690.542 198.56 688.494 199.84C686.51 201.056 685.518 202.976 685.518 205.6C685.518 208.096 686.094 210.016 687.246 211.36C688.462 212.64 690.19 213.28 692.43 213.28C693.518 213.28 694.606 213.088 695.694 212.704C696.846 212.32 697.934 211.84 698.958 211.264C700.046 210.688 701.006 210.08 701.838 209.44C702.67 208.736 703.342 208.096 703.854 207.52L705.486 205.6V197.92ZM777.528 169.12V212.32L785.688 214.24V219.52L769.848 220L768.888 213.28C766.2 215.648 763.16 217.536 759.768 218.944C756.376 220.288 753.496 220.96 751.128 220.96C746.008 220.96 742.168 219.456 739.608 216.448C737.048 213.44 735.768 209.216 735.768 203.776V176.8L727.608 174.88V169.6L745.368 169.12V202.816C745.368 206.208 746.04 208.736 747.384 210.4C748.728 212 750.776 212.8 753.528 212.8C756.28 212.8 758.808 212.16 761.112 210.88C763.416 209.6 765.112 208.352 766.2 207.136L767.928 205.216V176.8L759.768 174.88V169.6L777.528 169.12ZM816.01 197.92V189.76H840.97V197.92H816.01ZM162.4 316.32L164.32 326.4C165.472 327.04 167.04 327.616 169.024 328.128C171.008 328.576 172.96 328.8 174.88 328.8C176.8 328.8 178.656 328.576 180.448 328.128C182.24 327.616 183.808 326.912 185.152 326.016C186.496 325.12 187.552 324.064 188.32 322.848C189.152 321.568 189.568 320.128 189.568 318.528C189.568 316.672 189.056 315.136 188.032 313.92C187.008 312.64 185.664 311.552 184 310.656C182.4 309.696 180.576 308.864 178.528 308.16C176.48 307.456 174.4 306.72 172.288 305.952C170.048 304.992 167.872 304.032 165.76 303.072C163.712 302.048 161.856 300.832 160.192 299.424C158.592 297.952 157.312 296.192 156.352 294.144C155.392 292.096 154.912 289.568 154.912 286.56C154.912 283.36 155.52 280.576 156.736 278.208C158.016 275.84 159.68 273.888 161.728 272.352C163.84 270.816 166.272 269.696 169.024 268.992C171.84 268.224 174.784 267.84 177.856 267.84C179.264 267.84 180.768 267.936 182.368 268.128C183.968 268.32 185.536 268.576 187.072 268.896C188.608 269.152 190.048 269.472 191.392 269.856C192.736 270.176 193.888 270.464 194.848 270.72L197.92 271.68L197.44 288H191.2L187.936 277.728C186.144 277.152 184.352 276.736 182.56 276.48C180.832 276.224 179.04 276.096 177.184 276.096C175.328 276.096 173.632 276.352 172.096 276.864C170.624 277.312 169.344 277.952 168.256 278.784C167.232 279.616 166.432 280.544 165.856 281.568C165.28 282.592 164.992 283.648 164.992 284.736C165.056 287.424 165.952 289.536 167.68 291.072C169.408 292.608 171.552 293.92 174.112 295.008C176.672 296.096 179.424 297.12 182.368 298.08C185.376 299.04 188.128 300.256 190.624 301.728C193.184 303.136 195.296 304.992 196.96 307.296C198.688 309.6 199.552 312.608 199.552 316.32C199.552 319.648 198.912 322.592 197.632 325.152C196.352 327.712 194.592 329.888 192.352 331.68C190.112 333.408 187.456 334.752 184.384 335.712C181.312 336.608 178.016 337.056 174.496 337.056C173.088 337.056 171.552 336.96 169.888 336.768C168.288 336.576 166.688 336.32 165.088 336C163.552 335.744 162.112 335.456 160.768 335.136C159.424 334.752 158.304 334.4 157.408 334.08L154.72 333.12V316.32H162.4ZM226.495 271.584V285.6H240.415V292.8H226.495V323.616C226.495 327.52 228.095 329.472 231.295 329.472C233.343 329.472 235.839 328.672 238.783 327.072L241.375 332.16C237.023 335.36 232.543 336.96 227.935 336.96C224.671 336.96 222.015 335.904 219.967 333.792C217.919 331.616 216.895 328.032 216.895 323.04V292.8H207.295V286.56L216.895 285.6V273.504L226.495 271.584ZM255.634 336.96C253.778 336.96 252.274 336.384 251.122 335.232C250.034 334.016 249.49 332.384 249.49 330.336C249.49 328.224 250.066 326.56 251.218 325.344C252.434 324.128 253.97 323.52 255.826 323.52C257.682 323.52 259.154 324.128 260.242 325.344C261.394 326.496 261.97 328.128 261.97 330.24C261.97 332.288 261.362 333.92 260.146 335.136C258.994 336.352 257.49 336.96 255.634 336.96ZM333.033 276.48H312.393V298.08H334.473V305.76H312.393V328.32L321.993 330.24V336H294.153V330.24L302.312 328.32V276.48L294.153 274.56V269.28L312.393 268.8H341.673V284.64H335.433L333.033 276.48ZM392.103 311.808L358.983 312C358.983 317.248 360.231 321.44 362.727 324.576C365.287 327.712 368.679 329.28 372.903 329.28C374.311 329.28 375.719 329.152 377.127 328.896C378.535 328.64 379.847 328.32 381.063 327.936C382.343 327.552 383.495 327.136 384.519 326.688C385.543 326.176 386.407 325.696 387.111 325.248L389.031 324L392.391 328.992C390.215 330.72 388.199 332.096 386.343 333.12C384.551 334.08 382.407 334.976 379.911 335.808C377.479 336.576 374.823 336.96 371.943 336.96C364.391 336.96 358.663 334.688 354.759 330.144C350.855 325.536 348.903 319.264 348.903 311.328C348.903 307.36 349.479 303.712 350.631 300.384C351.783 297.056 353.383 294.208 355.431 291.84C357.543 289.408 360.039 287.52 362.919 286.176C365.799 284.832 368.967 284.16 372.423 284.16C385.863 284.16 392.583 291.68 392.583 306.72L392.103 311.808ZM359.367 304.8H382.407C382.407 300.896 381.575 297.728 379.911 295.296C378.247 292.864 375.559 291.648 371.847 291.648C368.199 291.648 365.287 292.896 363.111 295.392C360.935 297.824 359.687 300.96 359.367 304.8ZM416.321 262.08V328.32L425.921 330.72V336H398.369V330.72L406.529 328.32V269.76L398.369 267.84V262.56L416.321 262.08ZM442.758 262.56C446.918 262.56 448.998 264.96 448.998 269.76C448.998 271.744 448.294 273.28 446.886 274.368C445.478 275.456 443.974 276 442.374 276C440.646 276 439.238 275.424 438.15 274.272C437.062 273.056 436.518 271.392 436.518 269.28C436.518 267.168 437.094 265.536 438.246 264.384C439.462 263.168 440.966 262.56 442.758 262.56ZM448.038 285.12V328.32L455.238 330.72V336H430.278V330.72L438.438 328.32V292.8L430.278 290.88V285.6L448.038 285.12ZM510.434 285.12V328.32L518.594 330.24V335.52L502.754 336L501.794 329.28C499.106 331.648 496.066 333.536 492.674 334.944C489.282 336.288 486.402 336.96 484.034 336.96C478.914 336.96 475.074 335.456 472.514 332.448C469.954 329.44 468.674 325.216 468.674 319.776V292.8L460.514 290.88V285.6L478.274 285.12V318.816C478.274 322.208 478.946 324.736 480.29 326.4C481.634 328 483.682 328.8 486.434 328.8C489.186 328.8 491.714 328.16 494.018 326.88C496.322 325.6 498.018 324.352 499.106 323.136L500.834 321.216V292.8L492.674 290.88V285.6L510.434 285.12Z" fill="black"/>
<path d="M42.75 8H76.5V128H42.75V8Z" fill="#D22300"/>
<path d="M120 51.3735V84.6265H0V51.3735H120Z" fill="#D22300"/>
</svg>
